<svg xmlns="http://www.w3.org/2000/svg" width="1198" height="887" viewBox="0 0 1198 887"><defs><style type="text/css"/></defs><g transform="translate(310.2480755716848 619) scale(1)"><g class="relationship"><g transform="translate(432 -187) rotate(105.00170640871305)" stroke-width="2" stroke="#A6B7C8"><path d="M 92 0 L 269.57275369473837 0"/><polygon points="-14.155129855222071,0 -15.727922061357857,5.242640687119286 0,0 -15.727922061357857,-5.242640687119286" fill="#A6B7C8" transform="translate(283.72788354996044 0) rotate(0)" stroke="none"/></g><g transform="translate(385.20384180052054 -12.375163188713998) rotate(285.00170640871306) translate(0 -14)"><g transform="translate(0 0)"><g transform="translate(-53.599998474121094 0)" fill="#2B2B2B" stroke="#000000" stroke-width="0"><rect x="0" y="0" width="107.19999694824219" height="28" rx="5" ry="5" stroke="none"/><text xml:space="preserve" x="5" y="18.940999857584636" stroke="none" text-anchor="left" font-family="Fira Code" font-size="18" font-weight="normal" fill="#A6B7C8">CHOSEN_BY</text></g></g></g></g><g class="relationship"><g transform="translate(432 -187) rotate(-134.99829359128694)" stroke-width="2" stroke="#A6B7C8"><path d="M 92 0 L 269.5727536947383 0"/><polygon points="-14.155129855222071,0 -15.727922061357857,5.242640687119286 0,0 -15.727922061357857,-5.242640687119286" fill="#A6B7C8" transform="translate(283.7278835499604 0) rotate(0)" stroke="none"/></g><g transform="translate(304.1685342894541 -314.83908020590775) rotate(45.00170640871306) translate(0 -14)"><g transform="translate(0 0)"><g transform="translate(-59 0)" fill="#2B2B2B" stroke="#000000" stroke-width="0"><rect x="0" y="0" width="118" height="28" rx="5" ry="5" stroke="none"/><text xml:space="preserve" x="5" y="18.940999857584636" stroke="none" text-anchor="left" font-family="Fira Code" font-size="18" font-weight="normal" fill="#A6B7C8">WATCHED_IN</text></g></g></g></g><g class="relationship"><g transform="translate(432 -187) rotate(165.00170640871306)" stroke-width="2" stroke="#A6B7C8"><path d="M 91.80441716367098 -5.995747596311361 L 151.81384391976317 -9.914963984204773 A 40 40 0 0 1 154.42069070076812 -10 L 187.86394177498025 -10 L 221.30719284919238 -10 A 40 40 0 0 1 223.91403963019732 -9.914963984204773 L 269.79842892721626 -6.918253963756175 L 269.79842892721626 -6.918253963756175"/><polygon points="-14.155129855222071,0 -15.727922061357857,5.242640687119286 0,0 -15.727922061357857,-5.242640687119286" fill="#A6B7C8" transform="translate(375.7278835499605 0) rotate(3.736681272592325) translate(-92 0)" stroke="none"/></g><g transform="translate(253.12382155993757 -128.72330306278405) rotate(345.00170640871306) translate(0 -14)"><g transform="translate(0 0)"><g transform="translate(-75.19999694824219 0)" fill="#2B2B2B" stroke="#000000" stroke-width="0"><rect x="0" y="0" width="150.39999389648438" height="28" rx="5" ry="5" stroke="none"/><text xml:space="preserve" x="5" y="18.940999857584636" stroke="none" text-anchor="left" font-family="Fira Code" font-size="18" font-weight="normal" fill="#A6B7C8">NOMINATED_FOR</text></g></g></g></g><g class="relationship"><g transform="translate(432 -187) rotate(165.00170640871306)" stroke-width="2" stroke="#A6B7C8"><path d="M 91.80441716367098 5.995747596311361 L 151.81384391976317 9.914963984204773 A 40 40 0 0 0 154.42069070076812 10 L 187.86394177498025 10 L 221.30719284919238 10 A 40 40 0 0 0 223.91403963019732 9.914963984204773 L 269.79842892721626 6.918253963756175 L 269.79842892721626 6.918253963756175"/><polygon points="-14.155129855222071,0 -15.727922061357857,5.242640687119286 0,0 -15.727922061357857,-5.242640687119286" fill="#A6B7C8" transform="translate(375.7278835499605 0) rotate(-3.736681272592325) translate(-92 0)" stroke="none"/></g><g transform="translate(247.94801601294355 -148.0419737453053) rotate(345.00170640871306) translate(0 -14)"><g transform="translate(0 0)"><g transform="translate(-53.599998474121094 0)" fill="#2B2B2B" stroke="#000000" stroke-width="0"><rect x="0" y="0" width="107.19999694824219" height="28" rx="5" ry="5" stroke="none"/><text xml:space="preserve" x="5" y="18.940999857584636" stroke="none" text-anchor="left" font-family="Fira Code" font-size="18" font-weight="normal" fill="#A6B7C8">WINNER_OF</text></g></g></g></g><g class="relationship"><g transform="translate(166.32817837229825 -452.6876468147347) rotate(105.00170640871308)" stroke-width="2" stroke="#A6B7C8"><path d="M 92 0 L 269.5727536947384 0"/><polygon points="-14.155129855222071,0 -15.727922061357857,5.242640687119286 0,0 -15.727922061357857,-5.242640687119286" fill="#A6B7C8" transform="translate(283.7278835499605 0) rotate(0)" stroke="none"/></g><g transform="translate(119.53202017281868 -278.0628100034487) rotate(285.0017064087131) translate(0 -14)"><g transform="translate(0 0)"><g transform="translate(-80.5999984741211 0)" fill="#2B2B2B" stroke="#000000" stroke-width="0"><rect x="0" y="0" width="161.1999969482422" height="28" rx="5" ry="5" stroke="none"/><text xml:space="preserve" x="5" y="18.940999857584636" stroke="none" text-anchor="left" font-family="Fira Code" font-size="18" font-weight="normal" fill="#A6B7C8">SEASON_AWARDED</text></g></g></g></g><g class="relationship"><g transform="translate(794.9281624271192 -284.2347231919107) rotate(165.00170640871306)" stroke-width="2" stroke="#A6B7C8"><path d="M 92 0 L 269.57275369473876 0"/><polygon points="-14.155129855222071,0 -15.727922061357857,5.242640687119286 0,0 -15.727922061357857,-5.242640687119286" fill="#A6B7C8" transform="translate(283.72788354996084 0) rotate(0)" stroke="none"/></g><g transform="translate(620.3005385170936 -237.4489665865323) rotate(345.00170640871306) translate(0 -14)"><g transform="translate(0 0)"><g transform="translate(-48.20000076293945 0)" fill="#2B2B2B" stroke="#000000" stroke-width="0"><rect x="0" y="0" width="96.4000015258789" height="28" rx="5" ry="5" stroke="none"/><text xml:space="preserve" x="5" y="18.940999857584636" stroke="none" text-anchor="left" font-family="Fira Code" font-size="18" font-weight="normal" fill="#A6B7C8">ACTED_IN</text></g></g></g></g><g class="relationship"><g transform="translate(671.48909930349 -476.5106453858575) rotate(129.59824509161908)" stroke-width="2" stroke="#A6B7C8"><path d="M 92 0 L 269.57275369473837 0"/><polygon points="-14.155129855222071,0 -15.727922061357857,5.242640687119286 0,0 -15.727922061357857,-5.242640687119286" fill="#A6B7C8" transform="translate(283.72788354996044 0) rotate(0)" stroke="none"/></g><g transform="translate(556.2557922929906 -337.20881837334855) rotate(309.59824509161905) translate(0 -14)"><g transform="translate(0 0)"><g transform="translate(-48.20000076293945 0)" fill="#2B2B2B" stroke="#000000" stroke-width="0"><rect x="0" y="0" width="96.4000015258789" height="28" rx="5" ry="5" stroke="none"/><text xml:space="preserve" x="5" y="18.940999857584636" stroke="none" text-anchor="left" font-family="Fira Code" font-size="18" font-weight="normal" fill="#A6B7C8">DIRECTED</text></g></g></g></g><g class="relationship"><g transform="translate(784.1511642419104 -56.00000000000111) rotate(-159.59483227419312)" stroke-width="2" stroke="#A6B7C8"><path d="M 92 0 L 269.57275369473837 0"/><polygon points="-14.155129855222071,0 -15.727922061357857,5.242640687119286 0,0 -15.727922061357857,-5.242640687119286" fill="#A6B7C8" transform="translate(283.72788354996044 0) rotate(0)" stroke="none"/></g><g transform="translate(614.7090337181788 -119.03236039668707) rotate(20.40516772580688) translate(0 -14)"><g transform="translate(0 0)"><g transform="translate(-37.400001525878906 0)" fill="#2B2B2B" stroke="#000000" stroke-width="0"><rect x="0" y="0" width="74.80000305175781" height="28" rx="5" ry="5" stroke="none"/><text xml:space="preserve" x="5" y="18.940999857584636" stroke="none" text-anchor="left" font-family="Fira Code" font-size="18" font-weight="normal" fill="#A6B7C8">SPOKEN</text></g></g></g></g><g class="relationship"><g transform="translate(432 -527) rotate(90)" stroke-width="2" stroke="#A6B7C8"><path d="M 92 0 L 233.84487014477793 0"/><polygon points="-14.155129855222071,0 -15.727922061357857,5.242640687119286 0,0 -15.727922061357857,-5.242640687119286" fill="#A6B7C8" transform="translate(248 0) rotate(0)" stroke="none"/></g><g transform="translate(432 -364.07756492761104) rotate(270) translate(0 -14)"><g transform="translate(0 0)"><g transform="translate(-64.4000015258789 0)" fill="#2B2B2B" stroke="#000000" stroke-width="0"><rect x="0" y="0" width="128.8000030517578" height="28" rx="5" ry="5" stroke="none"/><text xml:space="preserve" x="5" y="18.940999857584636" stroke="none" text-anchor="left" font-family="Fira Code" font-size="18" font-weight="normal" fill="#A6B7C8">PRODUCED_BY</text></g></g></g></g><g class="relationship"><g transform="translate(432 -187) rotate(55.80862904290071)" stroke-width="2" stroke="#A6B7C8"><path d="M 92 0 L 269.57275369473876 0"/><polygon points="-14.155129855222071,0 -15.727922061357857,5.242640687119286 0,0 -15.727922061357857,-5.242640687119286" fill="#A6B7C8" transform="translate(283.72788354996084 0) rotate(0)" stroke="none"/></g><g transform="translate(533.5944969866582 -37.45979725964338) rotate(55.80862904290071) translate(0 -14)"><g transform="translate(0 0)"><g transform="translate(-53.599998474121094 0)" fill="#2B2B2B" stroke="#000000" stroke-width="0"><rect x="0" y="0" width="107.19999694824219" height="28" rx="5" ry="5" stroke="none"/><text xml:space="preserve" x="5" y="18.940999857584636" stroke="none" text-anchor="left" font-family="Fira Code" font-size="18" font-weight="normal" fill="#A6B7C8">HAS_GENRE</text></g></g></g></g><g class="relationship"><g transform="translate(69.07183757288115 -89.76527680808941) rotate(180)" stroke-width="2" stroke="#A6B7C8"><path d="M 92 0 L 181.16478328934392 0"/><polygon points="-14.155129855222071,0 -15.727922061357857,5.242640687119286 0,0 -15.727922061357857,-5.242640687119286" fill="#A6B7C8" transform="translate(195.319913144566 0) rotate(0)" stroke="none"/></g><g transform="translate(-67.5105540717908 -89.7652768080894) rotate(360) translate(0 -14)"><g transform="translate(0 0)"><g transform="translate(-48.20000076293945 0)" fill="#2B2B2B" stroke="#000000" stroke-width="0"><rect x="0" y="0" width="96.4000015258789" height="28" rx="5" ry="5" stroke="none"/><text xml:space="preserve" x="5" y="18.940999857584636" stroke="none" text-anchor="left" font-family="Fira Code" font-size="18" font-weight="normal" fill="#A6B7C8">CATEGORY</text></g></g></g></g><g class="relationship"><g transform="translate(334.7436592005831 175.92237000664522) rotate(-134.99829359128697)" stroke-width="2" stroke="#A6B7C8"><path d="M 91.80441716367098 -5.995747596311361 L 151.81384391976317 -9.914963984204773 A 40 40 0 0 1 154.42069070076812 -10 L 187.86394177498025 -10 L 221.30719284919238 -10 A 40 40 0 0 1 223.91403963019732 -9.914963984204773 L 269.79842892721626 -6.918253963756175 L 269.79842892721626 -6.918253963756175"/><polygon points="-14.155129855222071,0 -15.727922061357857,5.242640687119286 0,0 -15.727922061357857,-5.242640687119286" fill="#A6B7C8" transform="translate(375.7278835499605 0) rotate(3.736681272592325) translate(-92 0)" stroke="none"/></g><g transform="translate(194.8364699842761 50.14940381428083) rotate(45.001706408713034) translate(0 -14)"><g transform="translate(0 0)"><g transform="translate(-75.19999694824219 0)" fill="#2B2B2B" stroke="#000000" stroke-width="0"><rect x="0" y="0" width="150.39999389648438" height="28" rx="5" ry="5" stroke="none"/><text xml:space="preserve" x="5" y="18.940999857584636" stroke="none" text-anchor="left" font-family="Fira Code" font-size="18" font-weight="normal" fill="#A6B7C8">NOMINATED_FOR</text></g></g></g></g><g class="relationship"><g transform="translate(334.7436592005831 175.92237000664522) rotate(-134.99829359128697)" stroke-width="2" stroke="#A6B7C8"><path d="M 91.80441716367098 5.995747596311361 L 151.81384391976317 9.914963984204773 A 40 40 0 0 0 154.42069070076812 10 L 187.86394177498025 10 L 221.30719284919238 10 A 40 40 0 0 0 223.91403963019732 9.914963984204773 L 269.79842892721626 6.918253963756175 L 269.79842892721626 6.918253963756175"/><polygon points="-14.155129855222071,0 -15.727922061357857,5.242640687119286 0,0 -15.727922061357857,-5.242640687119286" fill="#A6B7C8" transform="translate(375.7278835499605 0) rotate(-3.736681272592325) translate(-92 0)" stroke="none"/></g><g transform="translate(208.97902678918814 36.007689384274954) rotate(45.001706408713034) translate(0 -14)"><g transform="translate(0 0)"><g transform="translate(-53.599998474121094 0)" fill="#2B2B2B" stroke="#000000" stroke-width="0"><rect x="0" y="0" width="107.19999694824219" height="28" rx="5" ry="5" stroke="none"/><text xml:space="preserve" x="5" y="18.940999857584636" stroke="none" text-anchor="left" font-family="Fira Code" font-size="18" font-weight="normal" fill="#A6B7C8">WINNER_OF</text></g></g></g></g><g class="node"><g fill="#2B2B2B" stroke="#A6B7C8" stroke-width="2"><circle cx="334.7436592005831" cy="175.92237000664522" r="91"/></g><g transform="translate(334.7436592005831 175.92237000664522)"><g transform="scale(0.890985309822815) translate(0 -50.4)"><g transform="translate(0 0)"><g transform="translate(-16.200000762939453 0)"><g fill="#A6B7C8" stroke="#000000" stroke-width="4" font-family="Fira Code" font-size="18" font-weight="normal"><text xml:space="preserve" x="0" y="20.940999857584636" stroke="none">Yob</text></g></g></g><g transform="translate(0 36)"><g transform="translate(-81.00000190734863 0)"><g font-family="Fira Code" font-size="18" font-weight="normal" fill="#A6B7C8" text-anchor="end"><text xml:space="preserve" x="75.60000038146973" y="15.740999857584633" stroke="none">name:</text><text xml:space="preserve" x="86.40000057220459" y="15.740999857584633" stroke="none" text-anchor="start">String</text><text xml:space="preserve" x="75.60000038146973" y="37.340999857584634" stroke="none" text-anchor="end">image:</text><text xml:space="preserve" x="86.40000057220459" y="37.340999857584634" stroke="none" text-anchor="start">String</text><text xml:space="preserve" x="75.60000038146973" y="58.94099985758463" stroke="none" text-anchor="end">id:</text><text xml:space="preserve" x="86.40000057220459" y="58.94099985758463" stroke="none" text-anchor="start">String</text></g></g></g></g></g></g><g class="node"><g fill="#2B2B2B" stroke="#A6B7C8" stroke-width="2"><circle cx="166.32817837229825" cy="-452.6876468147347" r="91"/></g><g transform="translate(166.32817837229825 -452.6876468147347)"><g transform="scale(0.7704169325525955) translate(0 -61.199999999999996)"><g transform="translate(0 0)"><g transform="translate(-32.400001525878906 0)"><g fill="#A6B7C8" stroke="#000000" stroke-width="4" font-family="Fira Code" font-size="18" font-weight="normal"><text xml:space="preserve" x="0" y="20.940999857584636" stroke="none">Season</text></g></g></g><g transform="translate(0 36)"><g transform="translate(-91.80000114440918 0)"><g font-family="Fira Code" font-size="18" font-weight="normal" fill="#A6B7C8" text-anchor="end"><text xml:space="preserve" x="75.60000038146973" y="15.740999857584633" stroke="none">name:</text><text xml:space="preserve" x="86.40000057220459" y="15.740999857584633" stroke="none" text-anchor="start">String</text><text xml:space="preserve" x="75.60000038146973" y="37.340999857584634" stroke="none" text-anchor="end">start:</text><text xml:space="preserve" x="86.40000057220459" y="37.340999857584634" stroke="none" text-anchor="start">DateTime</text><text xml:space="preserve" x="75.60000038146973" y="58.94099985758463" stroke="none" text-anchor="end">end:</text><text xml:space="preserve" x="86.40000057220459" y="58.94099985758463" stroke="none" text-anchor="start">DateTime</text><text xml:space="preserve" x="75.60000038146973" y="80.54099985758462" stroke="none" text-anchor="end">id:</text><text xml:space="preserve" x="86.40000057220459" y="80.54099985758462" stroke="none" text-anchor="start">String</text></g></g></g></g></g></g><g class="node"><g fill="#2B2B2B" stroke="#A6B7C8" stroke-width="2"><circle cx="432" cy="-187" r="91"/></g><g transform="translate(432 -187)"><g transform="scale(0.44225723950789797) translate(0 -136.79999999999998)"><g transform="translate(0 0)"><g transform="translate(-21.600000381469727 0)"><g fill="#A6B7C8" stroke="#000000" stroke-width="4" font-family="Fira Code" font-size="18" font-weight="normal"><text xml:space="preserve" x="0" y="20.940999857584636" stroke="none">Film</text></g></g></g><g transform="translate(0 36)"><g transform="translate(-134.99999809265137 0)"><g font-family="Fira Code" font-size="18" font-weight="normal" fill="#A6B7C8" text-anchor="end"><text xml:space="preserve" x="161.9999942779541" y="15.740999857584633" stroke="none">id:</text><text xml:space="preserve" x="172.79999446868896" y="15.740999857584633" stroke="none" text-anchor="start">String</text><text xml:space="preserve" x="161.9999942779541" y="37.340999857584634" stroke="none" text-anchor="end">slug:</text><text xml:space="preserve" x="172.79999446868896" y="37.340999857584634" stroke="none" text-anchor="start">String</text><text xml:space="preserve" x="161.9999942779541" y="58.94099985758463" stroke="none" text-anchor="end">running_order:</text><text xml:space="preserve" x="172.79999446868896" y="58.94099985758463" stroke="none" text-anchor="start">Int</text><text xml:space="preserve" x="161.9999942779541" y="80.54099985758462" stroke="none" text-anchor="end">poster_path:</text><text xml:space="preserve" x="172.79999446868896" y="80.54099985758462" stroke="none" text-anchor="start">String</text><text xml:space="preserve" x="161.9999942779541" y="102.14099985758462" stroke="none" text-anchor="end">budget:</text><text xml:space="preserve" x="172.79999446868896" y="102.14099985758462" stroke="none" text-anchor="start">Int</text><text xml:space="preserve" x="161.9999942779541" y="123.74099985758461" stroke="none" text-anchor="end">tagline:</text><text xml:space="preserve" x="172.79999446868896" y="123.74099985758461" stroke="none" text-anchor="start">String</text><text xml:space="preserve" x="161.9999942779541" y="145.34099985758462" stroke="none" text-anchor="end">runtime:</text><text xml:space="preserve" x="172.79999446868896" y="145.34099985758462" stroke="none" text-anchor="start">Int</text><text xml:space="preserve" x="161.9999942779541" y="166.94099985758461" stroke="none" text-anchor="end">overview:</text><text xml:space="preserve" x="172.79999446868896" y="166.94099985758461" stroke="none" text-anchor="start">String</text><text xml:space="preserve" x="161.9999942779541" y="188.54099985758464" stroke="none" text-anchor="end">vote_average:</text><text xml:space="preserve" x="172.79999446868896" y="188.54099985758464" stroke="none" text-anchor="start">Float</text><text xml:space="preserve" x="161.9999942779541" y="210.14099985758463" stroke="none" text-anchor="end">revenue:</text><text xml:space="preserve" x="172.79999446868896" y="210.14099985758463" stroke="none" text-anchor="start">Int</text><text xml:space="preserve" x="161.9999942779541" y="231.74099985758463" stroke="none" text-anchor="end">release_date:</text><text xml:space="preserve" x="172.79999446868896" y="231.74099985758463" stroke="none" text-anchor="start">DateTime</text></g></g></g></g></g></g><g class="node"><g fill="#2B2B2B" stroke="#A6B7C8" stroke-width="2"><circle cx="69.07183757288115" cy="-89.76527680808941" r="91"/></g><g transform="translate(69.07183757288115 -89.76527680808941)"><g transform="scale(1) translate(0 -28.799999999999997)"><g transform="translate(0 0)"><g transform="translate(-27 0)"><g fill="#A6B7C8" stroke="#000000" stroke-width="4" font-family="Fira Code" font-size="18" font-weight="normal"><text xml:space="preserve" x="0" y="20.940999857584636" stroke="none">Award</text></g></g></g><g transform="translate(0 36)"><g transform="translate(-64.8000020980835 0)"><g font-family="Fira Code" font-size="18" font-weight="normal" fill="#A6B7C8" text-anchor="end"><text xml:space="preserve" x="43.20000076293945" y="15.740999857584633" stroke="none">id:</text><text xml:space="preserve" x="54.000000953674316" y="15.740999857584633" stroke="none" text-anchor="start">String</text></g></g></g></g></g></g><g class="node"><g fill="#2B2B2B" stroke="#A6B7C8" stroke-width="2"><circle cx="794.9281624271192" cy="-284.2347231919107" r="91"/></g><g transform="translate(794.9281624271192 -284.2347231919107)"><g transform="scale(0.6118839517074439) translate(0 -72)"><g transform="translate(0 0)"><g transform="translate(-27 0)"><g fill="#A6B7C8" stroke="#000000" stroke-width="4" font-family="Fira Code" font-size="18" font-weight="normal"><text xml:space="preserve" x="0" y="20.940999857584636" stroke="none">Actor</text></g></g></g><g transform="translate(0 36)"><g transform="translate(-118.80000495910645 0)"><g font-family="Fira Code" font-size="18" font-weight="normal" fill="#A6B7C8" text-anchor="end"><text xml:space="preserve" x="151.20000648498535" y="15.740999857584633" stroke="none">name:</text><text xml:space="preserve" x="162.00000667572021" y="15.740999857584633" stroke="none" text-anchor="start">String</text><text xml:space="preserve" x="151.20000648498535" y="37.340999857584634" stroke="none" text-anchor="end">id:</text><text xml:space="preserve" x="162.00000667572021" y="37.340999857584634" stroke="none" text-anchor="start">String</text><text xml:space="preserve" x="151.20000648498535" y="58.94099985758463" stroke="none" text-anchor="end">profile_path:</text><text xml:space="preserve" x="162.00000667572021" y="58.94099985758463" stroke="none" text-anchor="start">String</text><text xml:space="preserve" x="151.20000648498535" y="80.54099985758462" stroke="none" text-anchor="end">gender:</text><text xml:space="preserve" x="162.00000667572021" y="80.54099985758462" stroke="none" text-anchor="start">Int</text><text xml:space="preserve" x="151.20000648498535" y="102.14099985758462" stroke="none" text-anchor="end">popularity:</text><text xml:space="preserve" x="162.00000667572021" y="102.14099985758462" stroke="none" text-anchor="start">Float</text></g></g></g></g></g></g><g class="node"><g fill="#2B2B2B" stroke="#A6B7C8" stroke-width="2"><circle cx="671.48909930349" cy="-476.5106453858575" r="91"/></g><g transform="translate(671.48909930349 -476.5106453858575)"><g transform="scale(0.6118839517074439) translate(0 -72)"><g transform="translate(0 0)"><g transform="translate(-43.20000076293945 0)"><g fill="#A6B7C8" stroke="#000000" stroke-width="4" font-family="Fira Code" font-size="18" font-weight="normal"><text xml:space="preserve" x="0" y="20.940999857584636" stroke="none">Director</text></g></g></g><g transform="translate(0 36)"><g transform="translate(-118.80000495910645 0)"><g font-family="Fira Code" font-size="18" font-weight="normal" fill="#A6B7C8" text-anchor="end"><text xml:space="preserve" x="151.20000648498535" y="15.740999857584633" stroke="none">name:</text><text xml:space="preserve" x="162.00000667572021" y="15.740999857584633" stroke="none" text-anchor="start">String</text><text xml:space="preserve" x="151.20000648498535" y="37.340999857584634" stroke="none" text-anchor="end">id:</text><text xml:space="preserve" x="162.00000667572021" y="37.340999857584634" stroke="none" text-anchor="start">String</text><text xml:space="preserve" x="151.20000648498535" y="58.94099985758463" stroke="none" text-anchor="end">profile_path:</text><text xml:space="preserve" x="162.00000667572021" y="58.94099985758463" stroke="none" text-anchor="start">String</text><text xml:space="preserve" x="151.20000648498535" y="80.54099985758462" stroke="none" text-anchor="end">gender:</text><text xml:space="preserve" x="162.00000667572021" y="80.54099985758462" stroke="none" text-anchor="start">Int</text><text xml:space="preserve" x="151.20000648498535" y="102.14099985758462" stroke="none" text-anchor="end">popularity:</text><text xml:space="preserve" x="162.00000667572021" y="102.14099985758462" stroke="none" text-anchor="start">Float</text></g></g></g></g></g></g><g class="node"><g fill="#2B2B2B" stroke="#A6B7C8" stroke-width="2"><circle cx="784.1511642419104" cy="-56.00000000000111" r="91"/></g><g transform="translate(784.1511642419104 -56.00000000000111)"><g transform="scale(1) translate(0 -28.799999999999997)"><g transform="translate(0 0)"><g transform="translate(-43.20000076293945 0)"><g fill="#A6B7C8" stroke="#000000" stroke-width="4" font-family="Fira Code" font-size="18" font-weight="normal"><text xml:space="preserve" x="0" y="20.940999857584636" stroke="none">Language</text></g></g></g><g transform="translate(0 36)"><g transform="translate(-64.8000020980835 0)"><g font-family="Fira Code" font-size="18" font-weight="normal" fill="#A6B7C8" text-anchor="end"><text xml:space="preserve" x="43.20000076293945" y="15.740999857584633" stroke="none">id:</text><text xml:space="preserve" x="54.000000953674316" y="15.740999857584633" stroke="none" text-anchor="start">String</text></g></g></g></g></g></g><g class="node"><g fill="#2B2B2B" stroke="#A6B7C8" stroke-width="2"><circle cx="432" cy="-527" r="91"/></g><g transform="translate(432 -527)"><g transform="scale(0.9355062637082641) translate(0 -50.4)"><g transform="translate(0 0)"><g transform="translate(-37.79999923706055 0)"><g fill="#A6B7C8" stroke="#000000" stroke-width="4" font-family="Fira Code" font-size="18" font-weight="normal"><text xml:space="preserve" x="0" y="20.940999857584636" stroke="none">COUNTRY</text></g></g></g><g transform="translate(0 36)"><g transform="translate(-75.60000228881836 0)"><g font-family="Fira Code" font-size="18" font-weight="normal" fill="#A6B7C8" text-anchor="end"><text xml:space="preserve" x="64.80000114440918" y="15.740999857584633" stroke="none">name:</text><text xml:space="preserve" x="75.60000133514404" y="15.740999857584633" stroke="none" text-anchor="start">String</text><text xml:space="preserve" x="64.80000114440918" y="37.340999857584634" stroke="none" text-anchor="end">iso:</text><text xml:space="preserve" x="75.60000133514404" y="37.340999857584634" stroke="none" text-anchor="start">String</text><text xml:space="preserve" x="64.80000114440918" y="58.94099985758463" stroke="none" text-anchor="end">id:</text><text xml:space="preserve" x="75.60000133514404" y="58.94099985758463" stroke="none" text-anchor="start">String</text></g></g></g></g></g></g><g class="node"><g fill="#2B2B2B" stroke="#A6B7C8" stroke-width="2"><circle cx="643.143593885655" cy="123.78903654727355" r="91"/></g><g transform="translate(643.143593885655 123.78903654727355)"><g transform="scale(0.9959745861112819) translate(0 -39.599999999999994)"><g transform="translate(0 0)"><g transform="translate(-27 0)"><g fill="#A6B7C8" stroke="#000000" stroke-width="4" font-family="Fira Code" font-size="18" font-weight="normal"><text xml:space="preserve" x="0" y="20.940999857584636" stroke="none">Genre</text></g></g></g><g transform="translate(0 36)"><g transform="translate(-75.60000228881836 0)"><g font-family="Fira Code" font-size="18" font-weight="normal" fill="#A6B7C8" text-anchor="end"><text xml:space="preserve" x="64.80000114440918" y="15.740999857584633" stroke="none">name:</text><text xml:space="preserve" x="75.60000133514404" y="15.740999857584633" stroke="none" text-anchor="start">String</text><text xml:space="preserve" x="64.80000114440918" y="37.340999857584634" stroke="none" text-anchor="end">id:</text><text xml:space="preserve" x="75.60000133514404" y="37.340999857584634" stroke="none" text-anchor="start">String</text></g></g></g></g></g></g><g class="node"><g fill="#2B2B2B" stroke="#A6B7C8" stroke-width="2"><circle cx="-218.24807557168484" cy="-89.76527680808941" r="91"/></g><g transform="translate(-218.24807557168484 -89.76527680808941)"><g transform="scale(0.6596285972053313) translate(0 -61.199999999999996)"><g transform="translate(0 0)"><g transform="translate(-43.20000076293945 0)"><g fill="#A6B7C8" stroke="#000000" stroke-width="4" font-family="Fira Code" font-size="18" font-weight="normal"><text xml:space="preserve" x="0" y="20.940999857584636" stroke="none">Category</text></g></g></g><g transform="translate(0 36)"><g transform="translate(-113.40000343322754 0)"><g font-family="Fira Code" font-size="18" font-weight="normal" fill="#A6B7C8" text-anchor="end"><text xml:space="preserve" x="140.40000343322754" y="15.740999857584633" stroke="none">name:</text><text xml:space="preserve" x="151.2000036239624" y="15.740999857584633" stroke="none" text-anchor="start">String</text><text xml:space="preserve" x="140.40000343322754" y="37.340999857584634" stroke="none" text-anchor="end">description:</text><text xml:space="preserve" x="151.2000036239624" y="37.340999857584634" stroke="none" text-anchor="start">String</text><text xml:space="preserve" x="140.40000343322754" y="58.94099985758463" stroke="none" text-anchor="end">type:</text><text xml:space="preserve" x="151.2000036239624" y="58.94099985758463" stroke="none" text-anchor="start">String</text><text xml:space="preserve" x="140.40000343322754" y="80.54099985758462" stroke="none" text-anchor="end">id:</text><text xml:space="preserve" x="151.2000036239624" y="80.54099985758462" stroke="none" text-anchor="start">String</text></g></g></g></g></g></g></g></svg>