<?xml version="1.0" standalone="no"?>
<!DOCTYPE svg PUBLIC "-//W3C//DTD SVG 20010904//EN"
 "http://www.w3.org/TR/2001/REC-SVG-20010904/DTD/svg10.dtd">
<svg version="1.0" xmlns="http://www.w3.org/2000/svg"
 width="238.000000pt" height="238.000000pt" viewBox="0 0 238.000000 238.000000"
 preserveAspectRatio="xMidYMid meet">
<metadata>
Created by potrace 1.14, written by Peter Selinger 2001-2017
</metadata>
<g transform="translate(0.000000,238.000000) scale(0.100000,-0.100000)"
fill="#000000" stroke="none">
<path d="M2349 2373 c-2 -4 -156 -84 -343 -178 -360 -181 -890 -449 -1564
-790 -227 -115 -411 -213 -410 -217 3 -7 375 -456 388 -468 3 -3 95 -113 205
-245 110 -132 202 -242 205 -245 3 -3 25 -30 50 -60 25 -30 49 -60 55 -66 5
-6 25 -30 44 -53 19 -23 38 -38 42 -34 6 7 214 369 277 483 14 25 42 74 62
110 21 36 50 88 66 115 15 28 87 155 161 283 73 128 133 236 133 239 0 3 8 17
19 31 10 15 32 52 49 82 34 62 147 261 401 709 95 166 170 305 168 308 -3 2
-7 1 -8 -4z m-301 -260 c-103 -106 -837 -856 -1120 -1145 l-128 -130 -192 102
c-106 57 -215 115 -243 130 -27 15 -83 44 -122 66 -40 21 -73 41 -73 45 0 4
82 48 183 99 589 298 1189 602 1442 731 160 82 292 148 295 149 2 0 -17 -21
-42 -47z m24 -105 c-17 -29 -126 -222 -243 -428 -116 -206 -223 -395 -237
-420 -14 -25 -88 -155 -165 -290 -77 -135 -154 -270 -170 -300 -17 -30 -50
-88 -74 -128 -24 -41 -43 -75 -43 -77 0 -2 -26 -49 -59 -104 l-58 -101 -68
242 c-37 134 -76 270 -86 302 -11 33 -19 65 -19 71 0 13 18 31 580 605 197
201 427 436 511 523 85 86 155 157 157 157 2 0 -10 -24 -26 -52z m-1462 -1149
c80 -43 151 -82 158 -87 9 -6 118 -369 147 -492 2 -8 6 -23 10 -33 4 -9 5 -17
2 -17 -3 0 -47 51 -99 112 -102 123 -124 149 -151 181 -11 12 -35 42 -55 66
-21 24 -64 76 -97 116 -61 72 -97 116 -200 240 -32 39 -67 81 -79 94 -22 26
59 -15 364 -180z"/>
</g>
</svg>
